{
    "asset" : {
        "generator" : "Khronos glTF Blender I/O v1.3.48",
        "version" : "2.0"
    },
    "scene" : 0,
    "scenes" : [
        {
            "name" : "Scene",
            "nodes" : [
                5
            ]
        }
    ],
    "nodes" : [
        {
            "mesh" : 0,
            "name" : "Chairs",
            "translation" : [
                0.8021552562713623,
                0,
                4.67929744720459
            ]
        },
        {
            "mesh" : 1,
            "name" : "Table-Border"
        },
        {
            "mesh" : 2,
            "name" : "Table-Top"
        },
        {
            "mesh" : 3,
            "name" : "Table-Walls"
        },
        {
            "mesh" : 4,
            "name" : "Walls"
        },
        {
            "children" : [
                0,
                1,
                2,
                3,
                4
            ],
            "name" : "Exterior",
            "rotation" : [
                0,
                0.7071067094802856,
                0,
                0.70710688829422
            ]
        }
    ],
    "materials" : [
        {
            "emissiveFactor" : [
                0,
                0,
                0
            ],
            "name" : "Mat",
            "pbrMetallicRoughness" : {
                "baseColorFactor" : [
                    0.43631115555763245,
                    0.07241403311491013,
                    0.07241421937942505,
                    1
                ],
                "metallicFactor" : 0,
                "roughnessFactor" : 0.20000000298023224
            }
        },
        {
            "emissiveFactor" : [
                0,
                0,
                0
            ],
            "name" : "Mat.1",
            "pbrMetallicRoughness" : {
                "baseColorFactor" : [
                    0.5382254719734192,
                    0.5382254719734192,
                    0.5382254719734192,
                    1
                ],
                "metallicFactor" : 0,
                "roughnessFactor" : 0.20000000298023224
            }
        },
        {
            "emissiveFactor" : [
                0,
                0,
                0
            ],
            "name" : "Mat.3",
            "pbrMetallicRoughness" : {
                "baseColorFactor" : [
                    0.023650625720620155,
                    0.023650625720620155,
                    0.023650625720620155,
                    1
                ],
                "metallicFactor" : 0,
                "roughnessFactor" : 0.20000000298023224
            }
        },
        {
            "emissiveFactor" : [
                0,
                0,
                0
            ],
            "name" : "Mat.2",
            "pbrMetallicRoughness" : {
                "baseColorFactor" : [
                    0.7356581091880798,
                    0.7356581091880798,
                    0.7356581091880798,
                    1
                ],
                "metallicFactor" : 0,
                "roughnessFactor" : 0.20000000298023224
            }
        }
    ],
    "meshes" : [
        {
            "name" : "Exterior-Mat",
            "primitives" : [
                {
                    "attributes" : {
                        "POSITION" : 0,
                        "NORMAL" : 1
                    },
                    "indices" : 2,
                    "material" : 0
                }
            ]
        },
        {
            "name" : "Exterior",
            "primitives" : [
                {
                    "attributes" : {
                        "POSITION" : 3,
                        "NORMAL" : 4
                    },
                    "indices" : 5
                }
            ]
        },
        {
            "name" : "Exterior-Mat.1",
            "primitives" : [
                {
                    "attributes" : {
                        "POSITION" : 6,
                        "NORMAL" : 7
                    },
                    "indices" : 8,
                    "material" : 1
                }
            ]
        },
        {
            "name" : "Exterior-Mat.3",
            "primitives" : [
                {
                    "attributes" : {
                        "POSITION" : 9,
                        "NORMAL" : 10
                    },
                    "indices" : 11,
                    "material" : 2
                }
            ]
        },
        {
            "name" : "Exterior-Mat.2",
            "primitives" : [
                {
                    "attributes" : {
                        "POSITION" : 12,
                        "NORMAL" : 13
                    },
                    "indices" : 14,
                    "material" : 3
                }
            ]
        }
    ],
    "accessors" : [
        {
            "bufferView" : 0,
            "componentType" : 5126,
            "count" : 970,
            "max" : [
                3.4120843410491943,
                1.71160089969635,
                -1.6658519506454468
            ],
            "min" : [
                -1.8120843172073364,
                0.187803253531456,
                -2.8301055431365967
            ],
            "type" : "VEC3"
        },
        {
            "bufferView" : 1,
            "componentType" : 5126,
            "count" : 970,
            "type" : "VEC3"
        },
        {
            "bufferView" : 2,
            "componentType" : 5123,
            "count" : 1080,
            "type" : "SCALAR"
        },
        {
            "bufferView" : 3,
            "componentType" : 5126,
            "count" : 164,
            "max" : [
                4.961916923522949,
                2.9201788902282715,
                1.2000000476837158
            ],
            "min" : [
                -2.220003128051758,
                2.760178804397583,
                -1.2000000476837158
            ],
            "type" : "VEC3"
        },
        {
            "bufferView" : 4,
            "componentType" : 5126,
            "count" : 164,
            "type" : "VEC3"
        },
        {
            "bufferView" : 5,
            "componentType" : 5123,
            "count" : 192,
            "type" : "SCALAR"
        },
        {
            "bufferView" : 6,
            "componentType" : 5126,
            "count" : 84,
            "max" : [
                4.961916923522949,
                2.9201788902282715,
                1.2000000476837158
            ],
            "min" : [
                -2.220003128051758,
                0.12017878890037537,
                -1.2000000476837158
            ],
            "type" : "VEC3"
        },
        {
            "bufferView" : 7,
            "componentType" : 5126,
            "count" : 84,
            "type" : "VEC3"
        },
        {
            "bufferView" : 8,
            "componentType" : 5123,
            "count" : 96,
            "type" : "SCALAR"
        },
        {
            "bufferView" : 9,
            "componentType" : 5126,
            "count" : 80,
            "max" : [
                4.861913681030273,
                2.760178804397583,
                1.100000023841858
            ],
            "min" : [
                -2.119999885559082,
                0.12017878890037537,
                -1.100000023841858
            ],
            "type" : "VEC3"
        },
        {
            "bufferView" : 10,
            "componentType" : 5126,
            "count" : 80,
            "type" : "VEC3"
        },
        {
            "bufferView" : 11,
            "componentType" : 5123,
            "count" : 84,
            "type" : "SCALAR"
        },
        {
            "bufferView" : 12,
            "componentType" : 5126,
            "count" : 185,
            "max" : [
                5,
                8.2486572265625,
                4
            ],
            "min" : [
                -5,
                0,
                -4
            ],
            "type" : "VEC3"
        },
        {
            "bufferView" : 13,
            "componentType" : 5126,
            "count" : 185,
            "type" : "VEC3"
        },
        {
            "bufferView" : 14,
            "componentType" : 5123,
            "count" : 324,
            "type" : "SCALAR"
        }
    ],
    "bufferViews" : [
        {
            "buffer" : 0,
            "byteLength" : 11640,
            "byteOffset" : 0
        },
        {
            "buffer" : 0,
            "byteLength" : 11640,
            "byteOffset" : 11640
        },
        {
            "buffer" : 0,
            "byteLength" : 2160,
            "byteOffset" : 23280
        },
        {
            "buffer" : 0,
            "byteLength" : 1968,
            "byteOffset" : 25440
        },
        {
            "buffer" : 0,
            "byteLength" : 1968,
            "byteOffset" : 27408
        },
        {
            "buffer" : 0,
            "byteLength" : 384,
            "byteOffset" : 29376
        },
        {
            "buffer" : 0,
            "byteLength" : 1008,
            "byteOffset" : 29760
        },
        {
            "buffer" : 0,
            "byteLength" : 1008,
            "byteOffset" : 30768
        },
        {
            "buffer" : 0,
            "byteLength" : 192,
            "byteOffset" : 31776
        },
        {
            "buffer" : 0,
            "byteLength" : 960,
            "byteOffset" : 31968
        },
        {
            "buffer" : 0,
            "byteLength" : 960,
            "byteOffset" : 32928
        },
        {
            "buffer" : 0,
            "byteLength" : 168,
            "byteOffset" : 33888
        },
        {
            "buffer" : 0,
            "byteLength" : 2220,
            "byteOffset" : 34056
        },
        {
            "buffer" : 0,
            "byteLength" : 2220,
            "byteOffset" : 36276
        },
        {
            "buffer" : 0,
            "byteLength" : 648,
            "byteOffset" : 38496
        }
    ],
    "buffers" : [
        {
            "byteLength" : 39144,
            "uri" : "data:application/octet-stream;base64,"
        }
    ]
}
